<svg xmlns="http://www.w3.org/2000/svg" version="1.1" viewBox="-5.0 -10.0 110.0 135.0">
 <path d="m91.195 4.8516h-28.316l-7.7539 13.426h40.023v-9.4727c-0.007813-2.1797-1.7734-3.9492-3.9531-3.9531zm-61.195 38.086c0.60156 0.019531 1.0781 0.51172 1.0781 1.1133 0 0.59766-0.47656 1.0898-1.0781 1.1094h-20.105c-0.30078 0.007813-0.58984-0.10547-0.80859-0.3125-0.21484-0.21094-0.33594-0.5-0.33594-0.79688 0-0.30078 0.12109-0.58984 0.33594-0.80078 0.21875-0.20703 0.50781-0.32031 0.80859-0.3125zm0-6.3047c0.60156 0.019532 1.0781 0.51172 1.0781 1.1133 0 0.59766-0.47656 1.0898-1.0781 1.1094h-20.105c-0.30078 0.007812-0.58984-0.10547-0.80859-0.3125-0.21484-0.21094-0.33594-0.49609-0.33594-0.79688 0-0.30078 0.12109-0.58984 0.33594-0.79688 0.21875-0.21094 0.50781-0.32422 0.80859-0.31641zm0-6.3047v0.003906c0.60156 0.015625 1.0781 0.50781 1.0781 1.1094 0 0.59766-0.47656 1.0898-1.0781 1.1094h-20.105c-0.30078 0.007813-0.58984-0.10547-0.80859-0.3125-0.21484-0.21094-0.33594-0.49609-0.33594-0.79688 0-0.30078 0.12109-0.58984 0.33594-0.79688 0.21875-0.21094 0.50781-0.32422 0.80859-0.3125zm-0.58984 27.199v0.003906c-6.2148-0.003906-11.566 4.3867-12.781 10.484-1.2109 6.0938 2.0508 12.199 7.793 14.578s12.363 0.37109 15.816-4.7969c3.457-5.168 2.7773-12.055-1.6172-16.453-2.4414-2.4453-5.7578-3.8203-9.2109-3.8125zm-10.785 2.2461c-3.7695 3.7656-5.2969 9.2227-4.0352 14.398 1.2617 5.1758 5.1328 9.3125 10.211 10.922 5.0781 1.6055 10.625 0.44922 14.637-3.0586 6.6211 6.293 15.723 9.2773 24.785 8.125 9.0625-1.1562 17.129-6.3203 21.965-14.07 4.8359-7.7539 5.9297-17.266 2.9805-25.914-2.9492-8.6484-9.6289-15.512-18.191-18.691-8.5625-3.1836-18.105-2.3438-25.984 2.2773-7.8789 4.625-13.262 12.547-14.66 21.574-0.30859-0.019532-0.61719-0.027344-0.92969-0.027344-4.043-0.003906-7.9219 1.6016-10.777 4.4648zm13.902-4.1445c0.65234-4.1953 2.25-8.1914 4.6719-11.684 3.1133 1.543 6.4141 2.6719 9.8203 3.3516 0.31641 0.070313 0.64453 0.13281 0.96875 0.19922h0.003907c-0.72266 3.7539-1.1094 7.5664-1.1602 11.387h-7.6211c-1.9258-1.6211-4.2227-2.7383-6.6836-3.2539zm8.8359 5.4727h5.4727v0.003907c0.046874 3.8242 0.4375 7.6328 1.1562 11.391-1.2461 0.24219-2.4414 0.51953-3.5977 0.83203h0.003907c0.79687-4.3203-0.30859-8.7773-3.0312-12.227zm2.3516 14.719-0.003906 0.003907c1.5625-0.46875 3.1484-0.85938 4.7539-1.1641 0.51953 2.2188 1.2227 4.3906 2.1055 6.4961 0.94141 2.3711 2.3047 4.5547 4.0195 6.4453-1.75-0.36719-3.4648-0.90234-5.1172-1.5938-3.1367-1.3242-6.0117-3.2031-8.4805-5.5469 1.1758-1.3711 2.0977-2.9414 2.7227-4.6406zm-22.555-5.2617-0.003906 0.003906c-0.60938-0.76562-0.98828-1.6914-1.0898-2.668-0.09375-0.97266 0.097656-1.9492 0.55859-2.8086l1.4453-2.7383c0.34375-0.65625 1.0039-1.0938 1.7422-1.1523 0.74219-0.058593 1.4609 0.26172 1.9102 0.85547l1.9805 2.6133-0.003906 0.003907c0.61328 0.80469 0.58203 1.9258-0.066407 2.6992l-0.45312 0.53906h0.003906c-0.035156 0.039062-0.054688 0.085938-0.058594 0.13281 0 0.050782 0.015625 0.10156 0.046875 0.14063 1.2344 1.8086 2.7969 3.3711 4.6055 4.6055 0.082031 0.066406 0.19922 0.0625 0.27344-0.011718l0.53906-0.45313v0.003907c0.77344-0.65234 1.8945-0.67969 2.7031-0.070313l2.6133 1.9805c0.59766 0.44922 0.92188 1.168 0.85938 1.9141-0.058594 0.74219-0.49609 1.4023-1.1562 1.7461l-2.7383 1.4453c-0.85938 0.46094-1.8359 0.65234-2.8086 0.55859-0.97656-0.10156-1.9023-0.48047-2.668-1.0938-1.5469-1.1875-3.0195-2.4648-4.4102-3.8281-1.3633-1.3906-2.6406-2.8633-3.8242-4.4102zm1.1055-2.8867v0.003906c-0.050781-0.53906 0.058594-1.082 0.31641-1.5586l1.418-2.668 1.9141 2.5273-0.42969 0.51172c-0.72266 0.85938-0.76172 2.1016-0.097656 3.0039 0.69141 0.98437 1.4609 1.9141 2.2969 2.7812 0.86719 0.83594 1.7969 1.6094 2.7812 2.3008 0.90234 0.66797 2.1445 0.625 3.0039-0.097657l0.51172-0.42969 2.5273 1.9141-2.668 1.4102v0.003906c-0.48047 0.25391-1.0234 0.36719-1.5625 0.31641-0.55469-0.0625-1.082-0.28125-1.5156-0.63281-1.4727-1.1367-2.8789-2.3594-4.2109-3.6602-1.3008-1.332-2.5234-2.7383-3.6562-4.2109-0.35547-0.43359-0.57422-0.96094-0.63281-1.5156zm39.242-35.738c2.5273 0.65234 4.8672 3.4961 6.6836 7.7656 0.8125 1.9453 1.4648 3.9492 1.9531 6-2.8594 0.42969-5.7422 0.66406-8.6328 0.70703v-14.473zm0 16.699c3.0508-0.042968 6.0977-0.29687 9.1133-0.75781 0.69922 3.6289 1.0742 7.3125 1.1211 11.008h-10.234zm0 12.469h10.234c-0.046876 3.6953-0.42188 7.3789-1.1211 11.008-3.0156-0.46094-6.0625-0.71484-9.1133-0.75781zm0 12.469v0.003907c2.8906 0.039062 5.7734 0.27734 8.6328 0.70703-0.48828 2.0508-1.1406 4.0547-1.9531 6-1.8164 4.2695-4.1523 7.1133-6.6836 7.7656l0.003906-14.473zm-2.2188 14.48c-2.5312-0.65234-4.8672-3.4961-6.6836-7.7656-0.80859-1.9453-1.4648-3.9492-1.9492-6 0.21094-0.03125 0.42969-0.066406 0.64453-0.097656v0.003906c2.6484-0.37109 5.3164-0.57422 7.9883-0.61328zm0-16.699c-2.7734 0.042969-5.543 0.25391-8.293 0.64063-0.27344 0.039062-0.54688 0.078124-0.82031 0.12109h0.003907c-0.70313-3.6328-1.0781-7.3164-1.1289-11.012h10.234v10.25zm0-12.469h-10.238c0.050781-3.6953 0.42578-7.3789 1.1289-11.008 3.0156 0.46094 6.0586 0.71484 9.1094 0.75781zm0-12.469v-0.003906c-2.8906-0.039062-5.7734-0.27734-8.6328-0.70703 0.48828-2.0469 1.1406-4.0547 1.9531-6 1.8164-4.2695 4.1523-7.1133 6.6836-7.7656v14.473zm29.289 14.688c-0.19922 5.3555-1.9297 10.539-4.9844 14.938-3.1133-1.543-6.4141-2.668-9.8203-3.3477-0.31641-0.070312-0.64453-0.13281-0.97266-0.19922h0.003907c0.72266-3.7539 1.1094-7.5664 1.1562-11.391zm-14.617-2.2188c-0.046876-3.8242-0.43359-7.6367-1.1562-11.391 0.32812-0.0625 0.65234-0.12891 0.97266-0.19922 3.4062-0.67969 6.707-1.8047 9.8164-3.3477 3.0547 4.3984 4.7852 9.582 4.9883 14.938zm-35.402-16.734c0.94922-1.1641 1.9922-2.25 3.1172-3.25 3.6641-3.2578 8.1133-5.5 12.914-6.5078-1.7188 1.8867-3.0781 4.0703-4.0195 6.4414-0.87891 2.1016-1.5859 4.2734-2.1055 6.4961-0.33203-0.0625-0.66016-0.12891-0.98438-0.19922v-0.003906c-3.0898-0.61719-6.0859-1.6172-8.9258-2.9766zm33.773 3.1797c-0.52344-2.2227-1.2266-4.3945-2.1055-6.4961-0.94141-2.3711-2.3008-4.5547-4.0156-6.4414 6.2969 1.332 11.953 4.7734 16.027 9.7578-2.8398 1.3594-5.8359 2.3594-8.9219 2.9766-0.32422 0.070312-0.65234 0.13672-0.98438 0.19922zm9.9102 32.508c-0.59766 0.73047-1.2305 1.4297-1.8945 2.0977h-0.003906c-3.8672 3.875-8.7773 6.5352-14.133 7.6602 1.7148-1.8867 3.0781-4.0703 4.0195-6.4414 0.87891-2.1016 1.582-4.2734 2.1055-6.4961 0.33203 0.066406 0.66016 0.13281 0.98437 0.19922v0.003906c3.0859 0.61719 6.0859 1.6172 8.9258 2.9766zm5.6836-67.195c0.50781 0 0.92188 0.41406 0.92188 0.92188 0 0.51172-0.41406 0.92578-0.92188 0.92578h-16.594c-0.51172 0-0.92578-0.41406-0.92578-0.92578 0-0.50781 0.41406-0.92188 0.92578-0.92188zm-16.594-2.2188h16.598c1.7148 0.03125 3.0859 1.4297 3.0859 3.1445s-1.3711 3.1133-3.0859 3.1445h-16.598c-1.7148-0.03125-3.0898-1.4297-3.0898-3.1445s1.375-3.1133 3.0898-3.1445zm-54.805 0.45312c-1.2852 0-2.3906 0.90625-2.6406 2.1641-0.25391 1.2578 0.42188 2.5195 1.6094 3.0117 1.1836 0.49219 2.5547 0.078125 3.2656-0.98828 0.71484-1.0703 0.57422-2.4922-0.33203-3.4023-0.50391-0.50391-1.1914-0.78906-1.9023-0.78516zm-3.4727-0.78125-0.003907-0.003906c1.6602-1.6562 4.2539-1.9102 6.2031-0.60938 1.9453 1.3047 2.7031 3.8008 1.8086 5.9648-0.89844 2.1641-3.1992 3.3906-5.4961 2.9336-2.2969-0.45312-3.9531-2.4727-3.9531-4.8125 0-1.3047 0.51562-2.5547 1.4375-3.4766zm14.574 0.78125c-1.2852 0-2.3906 0.90625-2.6406 2.1641-0.25 1.2617 0.42188 2.5195 1.6094 3.0117 1.1875 0.49219 2.5547 0.078125 3.2656-0.98828 0.71484-1.0703 0.57422-2.4922-0.33203-3.4023-0.50391-0.50391-1.1914-0.78906-1.9023-0.78516zm-3.4727-0.78125-0.003906-0.003906c1.6562-1.6562 4.2539-1.9102 6.2031-0.60938 1.9453 1.3047 2.7031 3.8008 1.8047 5.9648-0.89453 2.1641-3.1953 3.3906-5.4922 2.9336-2.2969-0.45312-3.9531-2.4727-3.9531-4.8125 0-1.3047 0.51562-2.5547 1.4375-3.4766zm14.574 0.78125c-1.2852 0-2.3906 0.90625-2.6406 2.1641-0.25 1.2578 0.42578 2.5195 1.6094 3.0117 1.1875 0.49219 2.5547 0.074219 3.2656-0.99219 0.71484-1.0664 0.57422-2.4883-0.33203-3.3984-0.50391-0.50391-1.1875-0.78906-1.9023-0.78516zm-3.4727-0.78125-0.003906-0.003906c1.6602-1.6562 4.2539-1.9102 6.2031-0.60938 1.9453 1.3047 2.7031 3.8008 1.8086 5.9648-0.89844 2.1641-3.1992 3.3906-5.4961 2.9336-2.2969-0.45312-3.9531-2.4727-3.9531-4.8125 0-1.3047 0.51562-2.5547 1.4375-3.4766zm23.223-3.2422h1.8359l-7.7461 13.426h-1.8438zm-10.312 13.426h-43.316v-9.4727c0.007813-2.1797 1.7734-3.9453 3.9531-3.9531h47.117zm-43.316 2.2188v1.9297h90.297v-1.9297zm0 4.1484v66.551c0.007813 2.1797 1.7734 3.9453 3.9531 3.9531h82.391c2.1797-0.003907 3.9453-1.7734 3.9531-3.9531v-66.547zm3.9531-22.012h82.391c3.4062 0.003907 6.168 2.7656 6.1719 6.1719v82.391c-0.003907 3.4062-2.7656 6.168-6.1719 6.1719h-82.391c-3.4062-0.003907-6.168-2.7656-6.1719-6.1719v-82.391c0.003907-3.4062 2.7656-6.168 6.1719-6.1719z" fill-rule="evenodd"/>
</svg>