<svg xmlns="http://www.w3.org/2000/svg" version="1.1" viewBox="-5.0 -10.0 110.0 135.0">
 <path d="m79.902 62.98c-1.8203 0-3.4219-0.41797-4.9922-0.82812-2.8398-0.74219-5.5195-1.4375-9.75 0.37109-0.57812 0.25-1.2539 0.054687-1.6172-0.46484-0.35938-0.51562-0.30859-1.2188 0.125-1.6758 3.8867-4.1016 5.5078-6.918 4.2031-11.82-1.7852-6.7148-1.7617-11.426 0.074218-14.402 1.043-1.6914 2.6406-2.7734 4.7422-3.2109 2.9453-0.61328 5.8008-0.097657 8.0391 1.4609 2.1055 1.4609 3.4922 3.7695 3.9102 6.5 0.10938 0.72656-0.39062 1.4062-1.1172 1.5156-0.73047 0.11328-1.4062-0.39062-1.5156-1.1172-0.30859-2.0312-1.2734-3.6602-2.793-4.7148-1.6328-1.1328-3.7578-1.5-5.9727-1.0391-1.3789 0.28906-2.3672 0.94531-3.0234 2.0039-1.4102 2.2891-1.332 6.4336 0.23047 12.32 1.1914 4.4805 0.29688 7.7266-2 10.953 2.832-0.37891 5.0781 0.20312 7.1328 0.73828 2.6289 0.6875 4.9023 1.2812 8.2461-0.097656 0.67969-0.28125 1.457 0.046875 1.7383 0.72266 0.28125 0.67969-0.042969 1.457-0.72266 1.7383-1.8594 0.76562-3.4766 1.0352-4.9414 1.0352z" fill-rule="evenodd"/>
 <path d="m77.098 48.492h-14.48c-0.73438 0-1.332-0.59766-1.332-1.332s0.59766-1.332 1.332-1.332h14.48c0.73438 0 1.332 0.59766 1.332 1.332s-0.59766 1.332-1.332 1.332z" fill-rule="evenodd"/>
 <path d="m51.574 97.508h-40.805c-5.9492 0-10.789-4.8398-10.789-10.789v-73.434c0-5.9492 4.8398-10.789 10.789-10.789h40.805c5.9492 0 10.789 4.8398 10.789 10.789v11.625c0 0.48047-0.25781 0.92188-0.67578 1.1562-7.457 4.2422-12.094 12.203-12.094 20.773 0 8.5703 4.6328 16.531 12.094 20.773 0.41406 0.23828 0.67188 0.67578 0.67188 1.1562v17.949c0 5.9492-4.8398 10.789-10.789 10.789zm-40.805-92.348c-4.4805 0-8.125 3.6445-8.125 8.125v73.438c0 4.4805 3.6445 8.125 8.125 8.125h40.805c4.4805 0 8.125-3.6445 8.125-8.125v-17.188c-7.8945-4.8047-12.766-13.426-12.766-22.691s4.8711-17.887 12.766-22.691v-10.863c0-4.4805-3.6445-8.125-8.125-8.125h-40.805z" fill-rule="evenodd"/>
 <path d="m61.031 83.84h-59.719c-0.73438 0-1.332-0.59766-1.332-1.332 0-0.73437 0.59766-1.332 1.332-1.332h59.719c0.73438 0 1.332 0.59766 1.332 1.332 0 0.73438-0.59766 1.332-1.332 1.332z" fill-rule="evenodd"/>
 <path d="m61.031 18.82h-59.719c-0.73438 0-1.332-0.59766-1.332-1.332s0.59766-1.332 1.332-1.332h59.719c0.73438 0 1.332 0.59766 1.332 1.332s-0.59766 1.332-1.332 1.332z" fill-rule="evenodd"/>
 <path d="m37.875 90.672h-13.406c-0.73438 0-1.332-0.59766-1.332-1.332s0.59766-1.332 1.332-1.332h13.406c0.73438 0 1.332 0.59766 1.332 1.332s-0.59766 1.332-1.332 1.332z" fill-rule="evenodd"/>
 <path d="m37.875 11.988h-13.406c-0.73438 0-1.332-0.59766-1.332-1.332s0.59766-1.332 1.332-1.332h13.406c0.73438 0 1.332 0.59766 1.332 1.332s-0.59766 1.332-1.332 1.332z" fill-rule="evenodd"/>
 <path d="m52.066 11.988h-2.4766c-0.73438 0-1.332-0.59766-1.332-1.332s0.59766-1.332 1.332-1.332h2.4766c0.73438 0 1.332 0.59766 1.332 1.332s-0.59766 1.332-1.332 1.332z" fill-rule="evenodd"/>
 <path d="m43.469 29.762h-33.41c-0.73438 0-1.332-0.59766-1.332-1.332 0-0.73438 0.59766-1.332 1.332-1.332h33.41c0.73438 0 1.332 0.59766 1.332 1.332 0 0.73437-0.59766 1.332-1.332 1.332z" fill-rule="evenodd"/>
 <path d="m39.559 40.547h-29.5c-0.73438 0-1.332-0.59766-1.332-1.332s0.59766-1.332 1.332-1.332h29.5c0.73438 0 1.332 0.59766 1.332 1.332s-0.59766 1.332-1.332 1.332z" fill-rule="evenodd"/>
 <path d="m39.559 51.332h-29.5c-0.73438 0-1.332-0.59766-1.332-1.332s0.59766-1.332 1.332-1.332h29.5c0.73438 0 1.332 0.59766 1.332 1.332s-0.59766 1.332-1.332 1.332z" fill-rule="evenodd"/>
 <path d="m39.559 62.117h-29.5c-0.73438 0-1.332-0.59766-1.332-1.332s0.59766-1.332 1.332-1.332h29.5c0.73438 0 1.332 0.59766 1.332 1.332s-0.59766 1.332-1.332 1.332z" fill-rule="evenodd"/>
 <path d="m43.469 72.898h-33.41c-0.73438 0-1.332-0.59766-1.332-1.332s0.59766-1.332 1.332-1.332h33.41c0.73438 0 1.332 0.59766 1.332 1.332s-0.59766 1.332-1.332 1.332z" fill-rule="evenodd"/>
 <path d="m73.477 73.383c-14.637 0-26.547-11.906-26.547-26.543 0-14.637 11.906-26.547 26.547-26.547 14.637 0 26.543 11.906 26.543 26.547 0 14.637-11.906 26.543-26.543 26.543zm0-50.426c-13.168 0-23.883 10.715-23.883 23.883 0 13.168 10.711 23.883 23.883 23.883 13.168 0 23.883-10.715 23.883-23.883 0-13.168-10.711-23.883-23.883-23.883z" fill-rule="evenodd"/>
</svg>