<svg xmlns="http://www.w3.org/2000/svg" xmlns:xlink="http://www.w3.org/1999/xlink" version="1.1" x="0px" y="0px" viewBox="0 0 32 32" style="enable-background:new 0 0 32 32;" xml:space="preserve"><path d="M9.352,16.333c1.877,0,3.29-2.773,3.29-4.571c0-1.814-1.476-3.29-3.29-3.29c-1.814,0-3.291,1.476-3.291,3.29  C6.062,13.56,7.475,16.333,9.352,16.333z M9.352,9.472c1.263,0,2.29,1.027,2.29,2.29c0,1.344-1.109,3.571-2.29,3.571  c-1.181,0-2.291-2.228-2.291-3.571C7.062,10.499,8.089,9.472,9.352,9.472z"/><path d="M10.745,16.507H7.958C5.225,16.507,3,18.731,3,21.465v1.563c0,0.276,0.224,0.5,0.5,0.5h11.704c0.276,0,0.5-0.224,0.5-0.5  v-1.563C15.704,18.731,13.479,16.507,10.745,16.507z M14.704,22.528H4v-1.063c0-2.183,1.776-3.958,3.958-3.958h2.787  c2.183,0,3.959,1.775,3.959,3.958V22.528z"/><path d="M22.648,16.333c1.877,0,3.29-2.773,3.29-4.571c0-1.814-1.476-3.29-3.29-3.29s-3.291,1.476-3.291,3.29  C19.357,13.56,20.771,16.333,22.648,16.333z M22.648,9.472c1.263,0,2.29,1.027,2.29,2.29c0,1.344-1.109,3.571-2.29,3.571  c-1.182,0-2.291-2.228-2.291-3.571C20.357,10.499,21.385,9.472,22.648,9.472z"/><path d="M24.041,16.507h-2.786c-2.734,0-4.959,2.225-4.959,4.958v1.563c0,0.276,0.224,0.5,0.5,0.5H28.5c0.276,0,0.5-0.224,0.5-0.5  v-1.563C29,18.731,26.775,16.507,24.041,16.507z M28,22.528H17.296v-1.063c0-2.183,1.776-3.958,3.959-3.958h2.786  c2.183,0,3.959,1.775,3.959,3.958V22.528z"/></svg>