<svg xmlns="http://www.w3.org/2000/svg" version="1.1" viewBox="-5.0 -10.0 110.0 135.0">
 <path d="m93.75 66.234v8.9922c0 0.85938-0.70312 1.5625-1.5625 1.5625s-1.5625-0.70312-1.5625-1.5625v-8.9922c0-4.6406-3.7734-8.4219-8.4219-8.4219h-4.0781c-0.85938 0-1.5625-0.70312-1.5625-1.5625s0.70312-1.5625 1.5625-1.5625h4.0781c6.3672 0 11.547 5.1797 11.547 11.547zm-20.312-0.69531v14.148c0 0.85938-0.70312 1.5625-1.5625 1.5625h-43.75c-0.85938 0-1.5625-0.70312-1.5625-1.5625v-14.148c0-8.5703 6.9688-15.539 15.539-15.539h15.805c8.5625 0 15.531 6.9688 15.531 15.539zm-3.125 0c0-6.8438-5.5703-12.414-12.414-12.414h-15.797c-6.8438 0-12.414 5.5703-12.414 12.414v12.586h40.625zm-32.812-34.289c0-6.8906 5.6094-12.5 12.5-12.5s12.5 5.6094 12.5 12.5-5.6094 12.5-12.5 12.5-12.5-5.6094-12.5-12.5zm3.125 0c0 5.1719 4.2031 9.375 9.375 9.375s9.375-4.2031 9.375-9.375-4.2031-9.375-9.375-9.375-9.375 4.2031-9.375 9.375zm26.562 9.375c0-5.1719 4.2031-9.375 9.375-9.375s9.375 4.2031 9.375 9.375-4.2031 9.375-9.375 9.375-9.375-4.2031-9.375-9.375zm3.125 0c0 3.4453 2.8047 6.25 6.25 6.25s6.25-2.8047 6.25-6.25-2.8047-6.25-6.25-6.25-6.25 2.8047-6.25 6.25zm-48.438 14.062h-4.0781c-6.3672 0-11.547 5.1797-11.547 11.547v8.9922c0 0.85938 0.70312 1.5625 1.5625 1.5625s1.5625-0.70312 1.5625-1.5625v-8.9922c0-4.6484 3.7734-8.4219 8.4219-8.4219h4.0781c0.85938 0 1.5625-0.70312 1.5625-1.5625s-0.70312-1.5625-1.5625-1.5625zm1.5625-4.6875c-5.1719 0-9.375-4.2031-9.375-9.375s4.2031-9.375 9.375-9.375 9.375 4.2031 9.375 9.375-4.2031 9.375-9.375 9.375zm6.25-9.375c0-3.4453-2.8047-6.25-6.25-6.25s-6.25 2.8047-6.25 6.25 2.8047 6.25 6.25 6.25 6.25-2.8047 6.25-6.25z"/>
</svg>