<svg xmlns="http://www.w3.org/2000/svg" xmlns:xlink="http://www.w3.org/1999/xlink" xmlns:serif="http://www.serif.com/" viewBox="0 0 24 30" version="1.1" xml:space="preserve" style="" x="0px" y="0px" fill-rule="evenodd" clip-rule="evenodd" stroke-linejoin="round" stroke-miterlimit="2"><g><path d="M12,1.25c5.933,0 10.75,4.817 10.75,10.75c0,5.933 -4.817,10.75 -10.75,10.75c-5.933,0 -10.75,-4.817 -10.75,-10.75c0,-5.933 4.817,-10.75 10.75,-10.75Zm0,1.5c-5.105,0 -9.25,4.145 -9.25,9.25c0,5.105 4.145,9.25 9.25,9.25c5.105,0 9.25,-4.145 9.25,-9.25c0,-5.105 -4.145,-9.25 -9.25,-9.25Z"/><circle cx="12" cy="7.25" r="1.25"/><path d="M10,11.25c-0.414,0 -0.75,-0.336 -0.75,-0.75c-0,-0.414 0.336,-0.75 0.75,-0.75l2,-0c0.414,0 0.75,0.336 0.75,0.75l0,7c-0,0.414 -0.336,0.75 -0.75,0.75c-0.414,-0 -0.75,-0.336 -0.75,-0.75l-0,-6.25l-1.25,-0Z"/><path d="M14,16.75c0.414,0 0.75,0.336 0.75,0.75c-0,0.414 -0.336,0.75 -0.75,0.75l-4,-0c-0.414,0 -0.75,-0.336 -0.75,-0.75c-0,-0.414 0.336,-0.75 0.75,-0.75l4,-0Z"/></g><text x="0" y="39" fill="#000000" font-size="5px" font-weight="bold" font-family="'Helvetica Neue', Helvetica, Arial-Unicode, Arial, Sans-serif">Created by Rolas Design</text><text x="0" y="44" fill="#000000" font-size="5px" font-weight="bold" font-family="'Helvetica Neue', Helvetica, Arial-Unicode, Arial, Sans-serif">from the Noun Project</text></svg>