<svg xmlns="http://www.w3.org/2000/svg" version="1.1" viewBox="-5.0 -10.0 110.0 135.0">
 <path d="m56.25 31.25v12.5h9.375c0.46094 0 0.89453 0.20312 1.1914 0.55078 0.29688 0.35156 0.42578 0.8125 0.34766 1.2656l-1.5625 9.375c-0.125 0.75781-0.77344 1.3086-1.5391 1.3086h-7.8125v26.562c0 0.86328-0.69922 1.5625-1.5625 1.5625h-9.375c-0.86328 0-1.5625-0.69922-1.5625-1.5625v-26.562h-9.375c-0.86328 0-1.5625-0.69922-1.5625-1.5625v-9.375c0-0.86328 0.69922-1.5625 1.5625-1.5625h9.375v-15.625c0-6.0312 4.9062-10.938 10.938-10.938h9.375c0.86328 0 1.5625 0.69922 1.5625 1.5625s-0.69922 1.5625-1.5625 1.5625h-9.375c-4.3086 0-7.8125 3.5039-7.8125 7.8125v17.188c0 0.86328-0.69922 1.5625-1.5625 1.5625h-9.375v6.25h9.375c0.86328 0 1.5625 0.69922 1.5625 1.5625v26.562h6.25v-26.562c0-0.86328 0.69922-1.5625 1.5625-1.5625h8.0508l1.043-6.25h-9.0938c-0.86328 0-1.5625-0.69922-1.5625-1.5625v-14.062c0-2.5859 2.1016-4.6875 4.6875-4.6875h9.375v-3.125c0-0.86328 0.69922-1.5625 1.5625-1.5625s1.5625 0.69922 1.5625 1.5625v4.6875c0 0.86328-0.69922 1.5625-1.5625 1.5625h-10.938c-0.86328 0-1.5625 0.69922-1.5625 1.5625zm29.688-28.125h-71.875c-6.0312 0-10.938 4.9062-10.938 10.938v71.875c0 6.0312 4.9062 10.938 10.938 10.938h71.875c6.0312 0 10.938-4.9062 10.938-10.938v-10.938c0-0.86328-0.69922-1.5625-1.5625-1.5625s-1.5625 0.69922-1.5625 1.5625v10.938c0 4.3086-3.5039 7.8125-7.8125 7.8125h-71.875c-4.3086 0-7.8125-3.5039-7.8125-7.8125v-71.875c0-4.3086 3.5039-7.8125 7.8125-7.8125h71.875c4.3086 0 7.8125 3.5039 7.8125 7.8125v48.438c0 0.86328 0.69922 1.5625 1.5625 1.5625s1.5625-0.69922 1.5625-1.5625v-48.438c0-6.0312-4.9062-10.938-10.938-10.938zm-16.078 14.516c-0.57812-0.57812-1.6406-0.57812-2.2188 0-0.28125 0.29688-0.45312 0.6875-0.45312 1.1094s0.17188 0.8125 0.45312 1.1094c0.29688 0.28125 0.6875 0.45312 1.1094 0.45312s0.8125-0.17188 1.1094-0.45312c0.28125-0.29688 0.45312-0.70312 0.45312-1.1094s-0.17188-0.8125-0.45312-1.1094zm25.453 47.984c-0.86328 0-1.5625 0.69922-1.5625 1.5625v3.125c0 0.86328 0.69922 1.5625 1.5625 1.5625s1.5625-0.69922 1.5625-1.5625v-3.125c0-0.86328-0.69922-1.5625-1.5625-1.5625z"/>
</svg>